<?xml version="1.0" standalone="no"?>
<!DOCTYPE svg PUBLIC "-//W3C//DTD SVG 20010904//EN"
 "http://www.w3.org/TR/2001/REC-SVG-20010904/DTD/svg10.dtd">
<svg version="1.0" xmlns="http://www.w3.org/2000/svg"
 width="1742.000000pt" height="1742.000000pt" viewBox="0 0 1742.000000 1742.000000"
 preserveAspectRatio="xMidYMid meet">
<metadata>
Created by potrace 1.14, written by Peter Selinger 2001-2017
</metadata>
<g transform="translate(0.000000,1742.000000) scale(0.100000,-0.100000)"
fill="#000000" stroke="none">
<path d="M16339 17273 c-82 -16 -257 -104 -332 -166 -67 -56 -171 -176 -286
-332 -45 -60 -87 -117 -94 -125 -7 -8 -33 -44 -58 -80 -25 -36 -89 -126 -142
-200 -53 -74 -102 -143 -109 -153 -43 -60 -313 -441 -343 -482 -19 -27 -42
-59 -49 -70 -8 -11 -40 -56 -71 -99 -31 -44 -75 -107 -98 -140 -22 -34 -45
-65 -49 -71 -9 -11 -76 -102 -96 -132 -30 -44 -182 -259 -190 -268 -4 -5 -23
-32 -42 -60 -19 -27 -38 -54 -42 -60 -5 -5 -52 -71 -104 -145 -124 -175 -313
-441 -387 -544 -32 -44 -65 -93 -75 -108 -9 -16 -20 -28 -24 -28 -5 0 -8 -5
-8 -10 0 -6 -5 -16 -10 -23 -10 -12 -171 -235 -200 -277 -8 -12 -36 -52 -63
-88 -69 -97 -70 -99 -136 -192 -33 -47 -64 -89 -68 -95 -4 -5 -75 -104 -158
-220 -82 -115 -153 -211 -157 -213 -4 -2 -8 -10 -8 -17 0 -7 -3 -15 -8 -17 -4
-2 -32 -37 -61 -78 -90 -124 -135 -184 -157 -209 l-21 -23 -119 63 c-97 51
-367 199 -579 319 -273 154 -462 230 -633 256 -20 3 -48 7 -62 10 -47 9 -275
11 -340 4 -127 -15 -166 -23 -260 -50 -212 -61 -387 -152 -540 -279 -64 -53
-95 -85 -205 -206 -44 -49 -105 -116 -136 -149 -31 -34 -73 -81 -95 -106 -21
-25 -41 -47 -44 -50 -3 -3 -36 -41 -75 -85 -38 -43 -77 -87 -85 -95 -8 -9 -40
-45 -70 -80 -85 -97 -179 -204 -252 -284 -43 -47 -43 -49 -23 -69 11 -12 444
-263 596 -347 16 -8 58 -33 96 -54 37 -22 86 -49 108 -61 58 -33 218 -124 235
-135 8 -5 31 -17 50 -27 19 -9 37 -20 40 -23 3 -3 21 -14 40 -23 19 -10 42
-22 50 -27 59 -38 261 -150 269 -150 6 0 11 -4 11 -8 0 -4 12 -13 28 -19 15
-6 38 -19 52 -27 30 -19 254 -147 325 -186 28 -15 165 -92 305 -172 140 -80
275 -156 300 -170 71 -40 269 -152 338 -192 35 -20 68 -36 73 -36 5 0 9 -3 9
-7 0 -5 10 -13 23 -19 33 -16 153 -82 235 -131 41 -24 75 -43 76 -43 2 0 58
-31 125 -70 68 -39 124 -70 126 -70 2 0 33 -18 69 -40 36 -22 68 -40 71 -40 2
0 34 -18 70 -40 36 -22 67 -40 69 -40 2 0 114 -62 248 -138 133 -76 263 -150
288 -164 114 -64 776 -437 870 -491 264 -150 314 -178 333 -184 9 -3 17 -9 17
-14 0 -5 5 -9 11 -9 6 0 53 -25 104 -55 52 -30 96 -55 99 -55 3 0 30 -16 60
-35 30 -19 58 -35 61 -35 4 0 52 -26 108 -59 204 -118 499 -281 508 -281 5 0
9 -4 9 -10 0 -5 4 -10 9 -10 7 0 53 -24 196 -105 215 -121 250 -138 266 -133
16 5 31 50 204 608 167 540 224 732 231 779 3 18 8 43 11 55 3 11 6 93 8 181
6 288 -57 530 -206 795 -81 143 -271 356 -389 435 -25 16 -47 33 -50 36 -7 8
-250 150 -491 288 -199 113 -249 147 -249 169 0 10 22 63 125 297 8 17 66 152
130 300 64 149 126 290 137 315 11 25 26 59 33 75 8 17 167 383 355 815 188
432 347 799 355 815 13 29 53 119 80 180 7 17 74 172 150 345 75 173 142 329
150 345 44 99 60 135 120 275 37 85 75 173 85 195 40 90 314 734 351 828 59
146 106 285 114 337 9 50 9 221 0 260 -3 14 -8 39 -10 55 -25 144 -112 309
-222 420 -124 126 -325 238 -474 265 -78 14 -275 11 -360 -7z"/>
<path d="M8063 10638 c-56 -49 -50 -43 -195 -183 -117 -113 -179 -171 -346
-323 -20 -19 -53 -48 -72 -66 -46 -42 -173 -151 -235 -201 -26 -22 -58 -49
-71 -60 -27 -24 -42 -37 -109 -90 -27 -22 -51 -43 -53 -47 -2 -5 -10 -8 -17
-8 -7 0 -15 -4 -17 -8 -8 -20 -427 -337 -598 -452 -12 -8 -48 -34 -81 -58
-127 -92 -290 -192 -301 -186 -6 4 -8 3 -4 -4 3 -6 -64 -54 -166 -119 -196
-122 -207 -129 -228 -139 -8 -4 -39 -22 -67 -41 -29 -18 -53 -29 -53 -25 0 4
-4 2 -8 -3 -7 -10 -60 -43 -147 -91 -22 -12 -65 -36 -95 -52 -30 -17 -58 -28
-64 -25 -5 3 -6 2 -3 -4 4 -6 -10 -18 -31 -26 -20 -9 -56 -28 -79 -41 -24 -13
-43 -21 -43 -18 0 4 -4 3 -8 -3 -9 -13 -25 -22 -220 -119 -193 -96 -296 -145
-441 -210 -57 -26 -124 -56 -148 -68 -25 -12 -52 -21 -59 -21 -8 0 -14 -4 -14
-8 0 -4 -10 -11 -22 -14 -20 -6 -82 -31 -173 -70 -115 -50 -506 -199 -620
-237 -33 -10 -69 -23 -80 -28 -52 -22 -225 -79 -225 -74 0 4 -7 1 -15 -6 -8
-7 -15 -9 -15 -5 0 4 -6 3 -12 -2 -11 -8 -34 -17 -78 -28 -15 -3 -159 -48
-180 -55 -57 -21 -543 -154 -599 -165 -9 -1 -34 -8 -56 -13 -22 -6 -51 -13
-65 -16 -14 -3 -43 -10 -65 -15 -22 -5 -51 -12 -65 -15 -14 -2 -79 -16 -145
-31 -66 -15 -131 -29 -145 -31 -14 -3 -56 -11 -95 -19 -38 -7 -97 -18 -130
-24 -33 -6 -73 -13 -90 -16 -129 -23 -226 -35 -234 -31 -5 4 -11 2 -13 -3 -1
-4 -28 -11 -58 -15 -30 -3 -71 -8 -90 -11 -19 -3 -57 -7 -85 -10 -27 -3 -70
-7 -95 -10 -25 -3 -67 -7 -95 -10 -230 -23 -255 -27 -260 -35 -3 -5 37 -34 87
-66 51 -32 95 -62 96 -66 2 -4 7 -8 12 -8 4 0 47 -25 96 -55 49 -30 105 -64
124 -75 19 -11 49 -29 65 -40 17 -11 41 -25 55 -32 14 -7 27 -15 30 -18 3 -3
26 -18 53 -34 26 -15 45 -31 42 -36 -3 -6 0 -7 8 -4 8 3 22 -2 31 -11 9 -9 16
-13 16 -10 0 4 15 -4 34 -19 19 -14 37 -26 40 -26 17 0 244 -148 238 -155 -4
-5 -2 -6 3 -2 6 3 29 -5 50 -19 22 -13 52 -29 68 -36 15 -7 27 -16 27 -20 0
-4 6 -8 13 -8 6 0 23 -10 37 -21 14 -11 19 -17 11 -13 -9 5 -12 3 -7 -5 4 -6
11 -9 16 -6 14 9 51 -15 44 -27 -4 -7 -3 -8 4 -4 11 7 233 -119 240 -136 2 -4
10 -8 17 -8 8 0 20 -6 27 -12 7 -7 33 -24 58 -37 25 -13 52 -30 61 -37 8 -8
19 -14 23 -14 4 0 34 -18 67 -40 33 -22 62 -40 63 -40 15 0 180 -110 179 -118
-2 -6 4 -9 12 -5 9 3 33 -6 55 -21 83 -54 114 -73 308 -189 26 -15 57 -33 69
-39 13 -6 23 -15 23 -20 0 -4 5 -8 10 -8 6 0 47 -22 91 -50 44 -27 85 -50 90
-50 5 0 9 -4 9 -10 0 -5 4 -10 9 -10 8 0 138 -77 306 -181 17 -10 37 -22 45
-26 18 -8 93 -55 100 -63 3 -3 18 -11 33 -18 15 -7 25 -17 22 -22 -3 -5 0 -7
8 -4 8 3 21 -1 28 -9 8 -7 29 -20 47 -28 17 -7 32 -17 32 -20 0 -4 13 -12 30
-19 16 -7 27 -17 23 -23 -4 -6 -1 -7 6 -3 7 5 20 2 29 -6 32 -26 67 -39 117
-43 28 -2 73 -6 100 -9 28 -3 82 -8 120 -11 39 -3 93 -8 120 -10 28 -3 93 -7
145 -10 52 -3 127 -8 165 -10 39 -3 228 -7 420 -10 193 -2 352 -5 355 -6 3 -1
9 -1 14 0 5 1 147 4 315 7 168 2 320 6 336 9 17 2 64 7 105 11 41 3 78 8 83
11 4 2 7 0 7 -5 0 -10 -146 -112 -160 -112 -4 0 -10 -4 -12 -8 -1 -5 -57 -43
-123 -85 -66 -43 -127 -82 -135 -87 -66 -45 -153 -100 -156 -100 -3 0 -42 -24
-87 -54 -130 -85 -317 -196 -317 -188 0 4 -4 2 -8 -3 -4 -6 -28 -23 -53 -38
-80 -45 -76 -53 72 -146 41 -27 90 -57 108 -67 61 -34 101 -60 183 -116 15
-10 29 -18 32 -18 6 0 138 -82 146 -90 3 -3 19 -12 35 -20 39 -19 56 -36 47
-45 -4 -5 -1 -5 5 -1 12 7 344 -188 351 -206 2 -5 10 -8 18 -8 8 0 23 -9 34
-20 11 -11 20 -18 20 -15 0 3 9 1 20 -5 11 -6 18 -15 16 -19 -3 -4 1 -8 8 -8
19 0 126 -63 126 -74 0 -6 5 -7 10 -4 6 3 10 2 10 -3 0 -6 11 -13 25 -16 14
-4 25 -11 25 -16 0 -6 4 -10 9 -10 21 0 130 -73 124 -83 -4 -6 -1 -7 6 -3 7 5
29 -3 51 -18 22 -14 44 -26 50 -26 5 0 10 -4 10 -9 0 -5 8 -11 18 -14 28 -9
126 -68 134 -81 4 -6 8 -8 8 -4 0 4 29 -7 65 -23 61 -29 83 -36 113 -38 7 -1
10 -6 6 -13 -4 -6 -3 -8 3 -5 6 4 37 9 69 11 33 3 81 9 108 14 27 6 65 9 86 8
21 0 36 2 34 5 -2 4 12 9 31 11 20 2 35 0 35 -7 0 -6 3 -6 8 1 4 7 25 15 47
18 22 4 91 16 153 27 62 11 126 22 142 24 16 2 33 6 37 8 4 3 24 8 43 11 29 4
141 27 200 41 108 25 113 26 238 59 50 13 92 22 92 19 0 -3 7 0 15 7 9 7 18
10 22 7 3 -4 12 -2 20 5 7 6 16 8 20 5 3 -4 12 -2 20 4 7 6 22 9 34 6 12 -3
18 -3 14 1 -3 3 20 14 52 23 58 17 294 90 433 134 41 13 140 47 220 75 80 28
150 53 155 54 6 2 23 8 39 15 16 6 36 9 43 7 8 -3 12 -2 9 3 -3 5 29 21 72 36
70 26 323 128 397 160 17 7 56 25 88 39 32 14 66 27 75 28 9 2 19 6 22 9 11
15 213 98 223 92 5 -3 7 -1 3 5 -3 6 4 14 16 18 23 7 473 227 538 264 19 10
80 43 135 73 55 29 118 64 140 77 22 12 65 36 95 53 30 17 73 41 95 53 108 61
135 72 132 55 -8 -47 -169 -315 -346 -580 -64 -95 -120 -180 -126 -189 -5 -8
-46 -64 -90 -123 -44 -59 -87 -117 -95 -129 -8 -12 -23 -31 -32 -43 -9 -12
-40 -51 -67 -87 -28 -36 -57 -72 -64 -80 -7 -8 -27 -33 -43 -55 -16 -21 -36
-46 -44 -55 -8 -9 -24 -29 -35 -44 -11 -16 -25 -33 -30 -40 -6 -6 -38 -45 -70
-86 -33 -41 -72 -88 -87 -103 -16 -16 -28 -32 -28 -35 0 -4 -21 -29 -45 -55
-25 -26 -45 -50 -45 -53 0 -3 -10 -16 -22 -28 -13 -13 -33 -37 -45 -52 -12
-16 -34 -43 -50 -60 -15 -17 -43 -49 -61 -70 -33 -40 -97 -112 -142 -164 -14
-15 -50 -56 -80 -91 -30 -35 -71 -81 -90 -101 -19 -20 -48 -53 -64 -72 -16
-20 -33 -33 -38 -30 -5 3 -7 2 -6 -3 3 -9 -76 -105 -121 -149 -14 -12 -29 -20
-34 -17 -6 3 -7 2 -4 -4 4 -6 -10 -28 -29 -49 -19 -21 -54 -60 -76 -86 -23
-26 -44 -45 -48 -43 -4 2 -7 -1 -7 -8 0 -7 -4 -20 -8 -29 -6 -15 19 -30 153
-95 89 -42 159 -80 156 -85 -3 -4 1 -5 9 -2 13 5 154 -58 167 -75 3 -3 13 -7
22 -9 9 -1 77 -31 150 -66 73 -35 143 -66 156 -70 12 -4 22 -12 22 -17 0 -5 7
-9 16 -9 9 0 33 -9 53 -19 45 -24 193 -94 244 -115 21 -8 36 -20 32 -26 -3 -5
0 -7 8 -5 7 3 58 -15 113 -41 171 -80 238 -110 272 -124 17 -7 32 -17 32 -23
0 -6 3 -8 6 -4 4 3 25 -4 48 -17 22 -12 44 -24 48 -25 44 -12 67 -25 61 -34
-3 -6 -1 -7 5 -3 14 8 135 -47 125 -58 -4 -4 0 -4 9 -1 9 4 38 -5 64 -19 66
-34 198 -97 204 -98 3 0 4 -4 2 -10 -1 -5 2 -7 7 -4 14 9 111 -35 104 -47 -3
-6 -1 -7 5 -3 9 5 128 -43 184 -74 10 -6 25 -10 33 -10 8 0 15 -4 15 -10 0 -5
6 -10 14 -10 7 0 39 -11 70 -25 31 -14 63 -25 70 -25 7 0 33 13 57 29 24 16
47 27 51 25 5 -3 7 -2 6 3 -2 5 15 25 37 44 129 111 407 379 523 504 31 35 56
54 63 49 8 -5 9 -3 4 5 -9 15 73 103 88 94 6 -3 7 -2 4 4 -4 6 9 28 29 49 19
21 50 56 67 77 18 22 39 48 49 58 9 11 31 39 50 61 18 23 45 55 61 70 15 16
27 32 27 36 0 4 8 15 18 23 9 9 26 28 36 43 19 27 43 56 68 86 7 8 46 57 86
110 40 52 78 94 83 92 6 -1 8 2 4 8 -3 5 8 27 24 47 28 35 85 111 121 163 25
35 90 124 106 143 7 9 14 21 14 26 0 4 9 16 20 26 11 10 20 22 20 27 0 5 6 16
13 23 25 29 37 44 37 49 0 8 72 111 83 118 7 4 9 8 4 8 -4 0 9 22 28 50 19 27
35 52 35 56 0 3 6 12 13 19 28 32 37 45 37 53 0 4 8 17 18 28 10 10 19 23 19
27 1 5 23 43 50 85 28 42 60 95 73 117 13 22 28 42 32 43 4 2 8 7 8 11 0 4 53
97 117 207 64 109 125 216 135 237 11 22 23 35 30 31 7 -4 8 -3 4 4 -4 6 7 35
23 64 17 29 51 94 78 145 26 50 52 89 57 86 5 -4 6 -1 2 6 -5 7 0 21 10 32 9
10 15 19 11 19 -3 0 15 37 39 83 46 87 207 408 209 417 1 3 28 59 60 125 33
66 60 122 60 125 2 20 40 88 47 84 4 -3 6 1 3 8 -6 18 50 140 60 131 4 -5 5
-2 1 5 -4 7 -3 18 2 25 5 7 15 29 21 50 7 20 17 37 23 37 6 0 9 3 6 6 -7 6 10
49 72 189 36 81 65 150 120 287 35 87 66 155 71 153 4 -3 5 4 2 15 -3 11 -1
26 4 33 6 6 13 25 17 40 4 17 11 25 18 21 7 -4 8 -3 4 4 -4 6 12 60 34 119 23
59 53 140 66 178 13 39 27 77 31 85 3 8 7 17 8 20 1 3 4 12 8 20 25 65 106
314 111 340 4 26 0 37 -17 51 -12 10 -26 18 -30 19 -5 0 -39 18 -75 39 -37 21
-89 51 -117 67 -27 15 -93 52 -145 82 -52 30 -120 69 -150 85 -30 16 -59 33
-65 37 -5 4 -41 25 -80 46 -38 20 -83 46 -100 56 -16 10 -39 22 -50 28 -11 6
-42 24 -70 40 -27 16 -63 37 -80 46 -16 9 -94 53 -173 98 -78 44 -159 89 -180
100 -20 10 -38 22 -40 27 -2 5 -8 9 -14 9 -6 0 -77 38 -157 84 -80 45 -167 95
-193 110 -27 14 -69 38 -95 52 -27 15 -82 46 -123 69 -41 24 -91 52 -111 63
-20 11 -47 26 -60 34 -13 7 -26 15 -29 18 -3 3 -32 19 -65 36 -33 18 -105 57
-160 89 -157 90 -203 116 -310 174 -16 9 -32 18 -35 21 -3 3 -14 10 -25 16
-72 39 -159 88 -290 162 -186 105 -216 122 -285 161 -30 18 -68 39 -85 47 -16
8 -43 23 -60 34 -16 11 -37 23 -45 27 -8 4 -40 21 -70 38 -30 17 -102 58 -160
90 -58 33 -107 62 -110 65 -3 3 -21 13 -40 22 -82 40 -254 140 -261 151 -3 5
-8 7 -10 6 -4 -3 -109 53 -194 103 -16 10 -52 30 -80 44 -27 15 -52 29 -55 33
-3 3 -18 13 -35 21 -16 8 -86 47 -155 86 -69 39 -132 73 -140 77 -8 4 -31 17
-50 28 -19 12 -53 32 -75 44 -118 65 -164 91 -197 112 -21 13 -40 23 -42 23
-3 0 -31 15 -63 34 -70 40 -147 84 -188 106 -16 9 -41 23 -55 32 -14 8 -54 31
-90 51 -111 59 -255 141 -260 146 -3 3 -23 15 -45 27 -64 33 -270 148 -275
154 -3 3 -23 14 -45 26 -78 41 -180 97 -215 118 -19 12 -56 33 -82 46 -26 13
-44 29 -41 35 4 5 3 7 -2 3 -10 -9 -105 41 -105 55 0 6 -3 7 -6 4 -6 -6 -59
18 -74 33 -3 3 -25 16 -50 29 -100 53 -176 95 -190 105 -8 7 -37 23 -63 36
-27 14 -56 30 -65 35 -37 22 -249 141 -272 152 -14 7 -50 27 -80 43 -30 17
-58 30 -62 30 -4 0 -24 -15 -45 -32z"/>
<path d="M2590 5476 c0 -2 8 -10 18 -17 15 -13 16 -12 3 4 -13 16 -21 21 -21
13z"/>
</g>
</svg>
